<svg width="96" height="21" viewBox="0 0 96 21" fill="none" xmlns="http://www.w3.org/2000/svg">
<path d="M9.4 20C14.3706 20 18.4 15.9706 18.4 11C18.4 6.02944 14.3706 2 9.4 2C4.42944 2 0.4 6.02944 0.4 11C0.4 15.9706 4.42944 20 9.4 20Z" stroke="url(#paint0_linear_1_5)" stroke-width="0.8"/>
<g opacity="0.75">
<path d="M3.9 14.5L8.4 10L13.4 7" fill="black"/>
<path d="M3.9 14.5L8.4 10L13.4 7" stroke="url(#paint1_linear_1_5)" stroke-width="0.6" stroke-linecap="round"/>
</g>
<path d="M3.9 15.6C4.50751 15.6 5 15.1075 5 14.5C5 13.8925 4.50751 13.4 3.9 13.4C3.29249 13.4 2.8 13.8925 2.8 14.5C2.8 15.1075 3.29249 15.6 3.9 15.6Z" fill="#02BBF0"/>
<path d="M8.4 11.3C9.11797 11.3 9.7 10.718 9.7 10C9.7 9.28203 9.11797 8.7 8.4 8.7C7.68203 8.7 7.1 9.28203 7.1 10C7.1 10.718 7.68203 11.3 8.4 11.3Z" fill="#A586DC"/>
<path d="M13.4 8.1C14.0075 8.1 14.5 7.60751 14.5 7C14.5 6.39249 14.0075 5.9 13.4 5.9C12.7925 5.9 12.3 6.39249 12.3 7C12.3 7.60751 12.7925 8.1 13.4 8.1Z" fill="#7A5EDD"/>
<path d="M29.47 15.21C28.15 15.21 27.1 14.85 26.32 14.13C25.54 13.4 25.15 12.36 25.15 11.01V8.49C25.15 7.14 25.54 6.105 26.32 5.385C27.1 4.655 28.15 4.29 29.47 4.29C30.79 4.29 31.84 4.655 32.62 5.385C33.4 6.105 33.79 7.14 33.79 8.49V11.01C33.79 12.36 33.4 13.4 32.62 14.13C31.84 14.85 30.79 15.21 29.47 15.21ZM29.47 13.44C30.21 13.44 30.785 13.225 31.195 12.795C31.605 12.365 31.81 11.79 31.81 11.07V8.43C31.81 7.71 31.605 7.135 31.195 6.705C30.785 6.275 30.21 6.06 29.47 6.06C28.74 6.06 28.165 6.275 27.745 6.705C27.335 7.135 27.13 7.71 27.13 8.43V11.07C27.13 11.79 27.335 12.365 27.745 12.795C28.165 13.225 28.74 13.44 29.47 13.44ZM35.5267 15V4.5H40.0867C40.7467 4.5 41.3217 4.615 41.8117 4.845C42.3017 5.075 42.6817 5.4 42.9517 5.82C43.2217 6.24 43.3567 6.735 43.3567 7.305V7.485C43.3567 8.115 43.2067 8.625 42.9067 9.015C42.6067 9.405 42.2367 9.69 41.7967 9.87V10.14C42.1967 10.16 42.5067 10.3 42.7267 10.56C42.9467 10.81 43.0567 11.145 43.0567 11.565V15H41.0767V11.85C41.0767 11.61 41.0117 11.415 40.8817 11.265C40.7617 11.115 40.5567 11.04 40.2667 11.04H37.5067V15H35.5267ZM37.5067 9.24H39.8767C40.3467 9.24 40.7117 9.115 40.9717 8.865C41.2417 8.605 41.3767 8.265 41.3767 7.845V7.695C41.3767 7.275 41.2467 6.94 40.9867 6.69C40.7267 6.43 40.3567 6.3 39.8767 6.3H37.5067V9.24ZM45.0043 15V4.5H46.9843V15H45.0043ZM53.0393 15.21C51.7193 15.21 50.6693 14.85 49.8893 14.13C49.1093 13.4 48.7193 12.36 48.7193 11.01V8.49C48.7193 7.14 49.1093 6.105 49.8893 5.385C50.6693 4.655 51.7193 4.29 53.0393 4.29C54.3593 4.29 55.4093 4.655 56.1893 5.385C56.9693 6.105 57.3593 7.14 57.3593 8.49V11.01C57.3593 12.36 56.9693 13.4 56.1893 14.13C55.4093 14.85 54.3593 15.21 53.0393 15.21ZM53.0393 13.44C53.7793 13.44 54.3543 13.225 54.7643 12.795C55.1743 12.365 55.3793 11.79 55.3793 11.07V8.43C55.3793 7.71 55.1743 7.135 54.7643 6.705C54.3543 6.275 53.7793 6.06 53.0393 6.06C52.3093 6.06 51.7343 6.275 51.3143 6.705C50.9043 7.135 50.6993 7.71 50.6993 8.43V11.07C50.6993 11.79 50.9043 12.365 51.3143 12.795C51.7343 13.225 52.3093 13.44 53.0393 13.44ZM59.0961 15V4.5H62.8611L64.9461 13.65H65.2161V4.5H67.1661V15H63.4011L61.3161 5.85H61.0461V15H59.0961Z" fill="#F3EFFF"/>
<path d="M71.5749 15V6.3H68.5149V4.5H76.6149V6.3H73.5549V15H71.5749ZM77.9632 15V4.5H84.7132V6.3H79.9432V8.805H84.2932V10.605H79.9432V13.2H84.8032V15H77.9632ZM86.2689 15V4.5H88.2489V8.67H88.5189L91.9239 4.5H94.4589L90.0789 9.675L94.6089 15H91.9989L88.5189 10.74H88.2489V15H86.2689Z" fill="#02BBF0"/>
<defs>
<linearGradient id="paint0_linear_1_5" x1="0.4" y1="2" x2="18.4" y2="20" gradientUnits="userSpaceOnUse">
<stop stop-color="#02BBF0"/>
<stop offset="1" stop-color="#7A5EDD"/>
</linearGradient>
<linearGradient id="paint1_linear_1_5" x1="3.9" y1="7" x2="11.1952" y2="16.2406" gradientUnits="userSpaceOnUse">
<stop stop-color="#02BBF0"/>
<stop offset="1" stop-color="#7A5EDD"/>
</linearGradient>
</defs>
</svg>
